<mxfile host="Electron" modified="2024-05-10T10:43:29.949Z" agent="Mozilla/5.0 (Macintosh; Intel Mac OS X 10_15_7) AppleWebKit/537.36 (KHTML, like Gecko) draw.io/24.2.5 Chrome/120.0.6099.109 Electron/28.1.0 Safari/537.36" etag="B4OfnpltctVGta-CJQqW" version="24.2.5" type="device">
  <diagram name="Страница — 1" id="sN-xA2W8r70xjzGV29DL">
    <mxGraphModel dx="513" dy="331" grid="1" gridSize="10" guides="1" tooltips="1" connect="1" arrows="1" fold="1" page="1" pageScale="1" pageWidth="827" pageHeight="1169" math="0" shadow="0">
      <root>
        <mxCell id="0" />
        <mxCell id="1" parent="0" />
        <mxCell id="0WL1SvpuNCtLogE-Mb61-1" value="" style="ellipse;whiteSpace=wrap;html=1;aspect=fixed;hachureGap=4;fontFamily=Architects Daughter;fontSource=https%3A%2F%2Ffonts.googleapis.com%2Fcss%3Ffamily%3DArchitects%2BDaughter;fillColor=#e1d5e7;strokeColor=#9673a6;" vertex="1" parent="1">
          <mxGeometry x="288.5" y="154.5" width="307" height="307" as="geometry" />
        </mxCell>
        <mxCell id="0WL1SvpuNCtLogE-Mb61-2" value="" style="ellipse;whiteSpace=wrap;html=1;aspect=fixed;hachureGap=4;fontFamily=Architects Daughter;fontSource=https%3A%2F%2Ffonts.googleapis.com%2Fcss%3Ffamily%3DArchitects%2BDaughter;fillColor=#fff2cc;strokeColor=#d6b656;" vertex="1" parent="1">
          <mxGeometry x="330" y="200" width="220" height="220" as="geometry" />
        </mxCell>
        <mxCell id="0WL1SvpuNCtLogE-Mb61-3" value="" style="ellipse;whiteSpace=wrap;html=1;aspect=fixed;hachureGap=4;fontFamily=Architects Daughter;fontSource=https%3A%2F%2Ffonts.googleapis.com%2Fcss%3Ffamily%3DArchitects%2BDaughter;fillColor=#d5e8d4;strokeColor=#82b366;" vertex="1" parent="1">
          <mxGeometry x="370" y="240" width="140" height="140" as="geometry" />
        </mxCell>
        <mxCell id="0WL1SvpuNCtLogE-Mb61-4" value="" style="ellipse;whiteSpace=wrap;html=1;aspect=fixed;hachureGap=4;fontFamily=Architects Daughter;fontSource=https%3A%2F%2Ffonts.googleapis.com%2Fcss%3Ffamily%3DArchitects%2BDaughter;fillColor=#fad9d5;strokeColor=#ae4132;" vertex="1" parent="1">
          <mxGeometry x="405" y="275" width="70" height="70" as="geometry" />
        </mxCell>
        <mxCell id="0WL1SvpuNCtLogE-Mb61-11" style="edgeStyle=orthogonalEdgeStyle;rounded=0;hachureGap=4;orthogonalLoop=1;jettySize=auto;html=1;exitX=1;exitY=0.5;exitDx=0;exitDy=0;entryX=0;entryY=0.5;entryDx=0;entryDy=0;fontFamily=Architects Daughter;fontSource=https%3A%2F%2Ffonts.googleapis.com%2Fcss%3Ffamily%3DArchitects%2BDaughter;" edge="1" parent="1" source="0WL1SvpuNCtLogE-Mb61-5" target="0WL1SvpuNCtLogE-Mb61-9">
          <mxGeometry relative="1" as="geometry">
            <Array as="points">
              <mxPoint x="533" y="177" />
            </Array>
          </mxGeometry>
        </mxCell>
        <mxCell id="0WL1SvpuNCtLogE-Mb61-5" value="&lt;font face=&quot;Helvetica&quot;&gt;Frameworks and drivers&lt;/font&gt;" style="text;html=1;align=center;verticalAlign=middle;whiteSpace=wrap;rounded=0;fontFamily=Architects Daughter;fontSource=https%3A%2F%2Ffonts.googleapis.com%2Fcss%3Ffamily%3DArchitects%2BDaughter;" vertex="1" parent="1">
          <mxGeometry x="410" y="162" width="60" height="30" as="geometry" />
        </mxCell>
        <mxCell id="0WL1SvpuNCtLogE-Mb61-13" style="edgeStyle=orthogonalEdgeStyle;rounded=0;hachureGap=4;orthogonalLoop=1;jettySize=auto;html=1;entryX=1;entryY=0.5;entryDx=0;entryDy=0;fontFamily=Architects Daughter;fontSource=https%3A%2F%2Ffonts.googleapis.com%2Fcss%3Ffamily%3DArchitects%2BDaughter;" edge="1" parent="1" source="0WL1SvpuNCtLogE-Mb61-6" target="0WL1SvpuNCtLogE-Mb61-12">
          <mxGeometry relative="1" as="geometry" />
        </mxCell>
        <mxCell id="0WL1SvpuNCtLogE-Mb61-6" value="&lt;font face=&quot;Helvetica&quot;&gt;Interface adapters&lt;/font&gt;" style="text;html=1;align=center;verticalAlign=middle;whiteSpace=wrap;rounded=0;fontFamily=Architects Daughter;fontSource=https%3A%2F%2Ffonts.googleapis.com%2Fcss%3Ffamily%3DArchitects%2BDaughter;" vertex="1" parent="1">
          <mxGeometry x="409" y="208" width="60" height="30" as="geometry" />
        </mxCell>
        <mxCell id="0WL1SvpuNCtLogE-Mb61-15" style="edgeStyle=orthogonalEdgeStyle;rounded=0;hachureGap=4;orthogonalLoop=1;jettySize=auto;html=1;entryX=0;entryY=0.5;entryDx=0;entryDy=0;fontFamily=Architects Daughter;fontSource=https%3A%2F%2Ffonts.googleapis.com%2Fcss%3Ffamily%3DArchitects%2BDaughter;" edge="1" parent="1" source="0WL1SvpuNCtLogE-Mb61-7" target="0WL1SvpuNCtLogE-Mb61-14">
          <mxGeometry relative="1" as="geometry" />
        </mxCell>
        <mxCell id="0WL1SvpuNCtLogE-Mb61-7" value="&lt;font face=&quot;Helvetica&quot;&gt;Use cases&lt;/font&gt;" style="text;html=1;align=center;verticalAlign=middle;whiteSpace=wrap;rounded=0;fontFamily=Architects Daughter;fontSource=https%3A%2F%2Ffonts.googleapis.com%2Fcss%3Ffamily%3DArchitects%2BDaughter;" vertex="1" parent="1">
          <mxGeometry x="412" y="245" width="60" height="30" as="geometry" />
        </mxCell>
        <mxCell id="0WL1SvpuNCtLogE-Mb61-26" style="edgeStyle=orthogonalEdgeStyle;rounded=0;hachureGap=4;orthogonalLoop=1;jettySize=auto;html=1;exitX=0;exitY=0.5;exitDx=0;exitDy=0;entryX=1;entryY=0.5;entryDx=0;entryDy=0;fontFamily=Architects Daughter;fontSource=https%3A%2F%2Ffonts.googleapis.com%2Fcss%3Ffamily%3DArchitects%2BDaughter;" edge="1" parent="1" source="0WL1SvpuNCtLogE-Mb61-8" target="0WL1SvpuNCtLogE-Mb61-16">
          <mxGeometry relative="1" as="geometry" />
        </mxCell>
        <mxCell id="0WL1SvpuNCtLogE-Mb61-8" value="&lt;font face=&quot;Helvetica&quot;&gt;Entities&lt;/font&gt;" style="text;html=1;align=center;verticalAlign=middle;whiteSpace=wrap;rounded=0;fontFamily=Architects Daughter;fontSource=https%3A%2F%2Ffonts.googleapis.com%2Fcss%3Ffamily%3DArchitects%2BDaughter;" vertex="1" parent="1">
          <mxGeometry x="410" y="293" width="60" height="30" as="geometry" />
        </mxCell>
        <mxCell id="0WL1SvpuNCtLogE-Mb61-9" value="&lt;font face=&quot;Helvetica&quot;&gt;HTTP, gRPC серверы, базы данных, внешние сервисы&lt;/font&gt;" style="rounded=0;whiteSpace=wrap;html=1;hachureGap=4;fontFamily=Architects Daughter;fontSource=https%3A%2F%2Ffonts.googleapis.com%2Fcss%3Ffamily%3DArchitects%2BDaughter;" vertex="1" parent="1">
          <mxGeometry x="595.5" y="110" width="120" height="60" as="geometry" />
        </mxCell>
        <mxCell id="0WL1SvpuNCtLogE-Mb61-12" value="&lt;font face=&quot;Helvetica&quot;&gt;Обертки и адаптеры интерфейсов&lt;/font&gt;" style="rounded=0;whiteSpace=wrap;html=1;hachureGap=4;fontFamily=Architects Daughter;fontSource=https%3A%2F%2Ffonts.googleapis.com%2Fcss%3Ffamily%3DArchitects%2BDaughter;" vertex="1" parent="1">
          <mxGeometry x="168.5" y="147" width="120" height="60" as="geometry" />
        </mxCell>
        <mxCell id="0WL1SvpuNCtLogE-Mb61-14" value="&lt;font face=&quot;Helvetica&quot;&gt;Обертки и адаптеры интерфейсов&lt;/font&gt;" style="rounded=0;whiteSpace=wrap;html=1;hachureGap=4;fontFamily=Architects Daughter;fontSource=https%3A%2F%2Ffonts.googleapis.com%2Fcss%3Ffamily%3DArchitects%2BDaughter;" vertex="1" parent="1">
          <mxGeometry x="595.5" y="193" width="120" height="60" as="geometry" />
        </mxCell>
        <mxCell id="0WL1SvpuNCtLogE-Mb61-16" value="&lt;font face=&quot;Helvetica&quot;&gt;Доменные сущности и ошибки&lt;/font&gt;" style="rounded=0;whiteSpace=wrap;html=1;hachureGap=4;fontFamily=Architects Daughter;fontSource=https%3A%2F%2Ffonts.googleapis.com%2Fcss%3Ffamily%3DArchitects%2BDaughter;" vertex="1" parent="1">
          <mxGeometry x="168.5" y="230" width="120" height="60" as="geometry" />
        </mxCell>
        <mxCell id="0WL1SvpuNCtLogE-Mb61-19" value="" style="triangle;whiteSpace=wrap;html=1;hachureGap=4;fontFamily=Architects Daughter;fontSource=https%3A%2F%2Ffonts.googleapis.com%2Fcss%3Ffamily%3DArchitects%2BDaughter;rotation=-180;fillColor=#dae8fc;strokeColor=#6c8ebf;" vertex="1" parent="1">
          <mxGeometry x="587" y="275" width="21" height="30" as="geometry" />
        </mxCell>
        <mxCell id="0WL1SvpuNCtLogE-Mb61-20" value="" style="triangle;whiteSpace=wrap;html=1;hachureGap=4;fontFamily=Architects Daughter;fontSource=https%3A%2F%2Ffonts.googleapis.com%2Fcss%3Ffamily%3DArchitects%2BDaughter;rotation=0;fillColor=#bac8d3;strokeColor=#23445d;" vertex="1" parent="1">
          <mxGeometry x="587" y="310" width="21" height="30" as="geometry" />
        </mxCell>
        <mxCell id="0WL1SvpuNCtLogE-Mb61-30" value="&lt;font style=&quot;font-size: 8px;&quot; face=&quot;Helvetica&quot;&gt;DB&lt;/font&gt;" style="rounded=0;whiteSpace=wrap;html=1;hachureGap=4;fontFamily=Architects Daughter;fontSource=https%3A%2F%2Ffonts.googleapis.com%2Fcss%3Ffamily%3DArchitects%2BDaughter;" vertex="1" parent="1">
          <mxGeometry x="420" y="430" width="40" height="20" as="geometry" />
        </mxCell>
        <mxCell id="0WL1SvpuNCtLogE-Mb61-31" value="&lt;font style=&quot;font-size: 8px;&quot; face=&quot;Helvetica&quot;&gt;Handler&lt;/font&gt;" style="rounded=0;whiteSpace=wrap;html=1;hachureGap=4;fontFamily=Architects Daughter;fontSource=https%3A%2F%2Ffonts.googleapis.com%2Fcss%3Ffamily%3DArchitects%2BDaughter;" vertex="1" parent="1">
          <mxGeometry x="557" y="282.5" width="30" height="47.5" as="geometry" />
        </mxCell>
        <mxCell id="0WL1SvpuNCtLogE-Mb61-34" value="" style="curved=1;endArrow=classic;html=1;rounded=0;hachureGap=4;fontFamily=Architects Daughter;fontSource=https%3A%2F%2Ffonts.googleapis.com%2Fcss%3Ffamily%3DArchitects%2BDaughter;entryX=0.25;entryY=0;entryDx=0;entryDy=0;exitX=1.024;exitY=0.149;exitDx=0;exitDy=0;fillColor=#dae8fc;strokeColor=#6c8ebf;exitPerimeter=0;" edge="1" parent="1" source="0WL1SvpuNCtLogE-Mb61-31" target="0WL1SvpuNCtLogE-Mb61-30">
          <mxGeometry width="50" height="50" relative="1" as="geometry">
            <mxPoint x="490" y="360" as="sourcePoint" />
            <mxPoint x="540" y="310" as="targetPoint" />
            <Array as="points">
              <mxPoint x="410" y="270" />
            </Array>
          </mxGeometry>
        </mxCell>
        <mxCell id="0WL1SvpuNCtLogE-Mb61-35" value="" style="curved=1;endArrow=classic;html=1;rounded=0;hachureGap=4;fontFamily=Architects Daughter;fontSource=https%3A%2F%2Ffonts.googleapis.com%2Fcss%3Ffamily%3DArchitects%2BDaughter;exitX=0.75;exitY=0;exitDx=0;exitDy=0;entryX=0.99;entryY=0.853;entryDx=0;entryDy=0;entryPerimeter=0;fillColor=#647687;strokeColor=#314354;" edge="1" parent="1" source="0WL1SvpuNCtLogE-Mb61-30" target="0WL1SvpuNCtLogE-Mb61-31">
          <mxGeometry width="50" height="50" relative="1" as="geometry">
            <mxPoint x="450" y="420" as="sourcePoint" />
            <mxPoint x="557" y="318" as="targetPoint" />
            <Array as="points">
              <mxPoint x="440" y="390" />
              <mxPoint x="450" y="300" />
            </Array>
          </mxGeometry>
        </mxCell>
        <mxCell id="0WL1SvpuNCtLogE-Mb61-37" value="&lt;font face=&quot;Helvetica&quot;&gt;Поток данных&lt;/font&gt;" style="text;html=1;align=center;verticalAlign=middle;whiteSpace=wrap;rounded=0;fontFamily=Architects Daughter;fontSource=https%3A%2F%2Ffonts.googleapis.com%2Fcss%3Ffamily%3DArchitects%2BDaughter;" vertex="1" parent="1">
          <mxGeometry x="610" y="295" width="60" height="30" as="geometry" />
        </mxCell>
      </root>
    </mxGraphModel>
  </diagram>
</mxfile>
